- 
http://www.Speed.Cd
 
http://www.Speed.Cd       the fast  and The Hottest Private Tracker on the net

Please Seed back to make the speed Faster!!
 ............ NFO .............
-[IMG]http://i.imgur.com/raThajr.jpg[/IMG]

Source: DVDR.R1.NTSC-TTR
 
http://www.imdb.com/title/tt2334841/

A Marine must do whatever it takes to save his kidnapped niece and stop a terrorist attack masterminded by a radical militia group.

General
Complete name                            : The Marine 3 Homefront 2013 DVDRip x264 AAC-OFFLiNE.mp4
Format                                   : MPEG-4
Format profile                           : Base Media
Codec ID                                 : isom
File size                                : 1.42 GiB
Duration                                 : 1h 30mn
Overall bit rate mode                    : Variable
Overall bit rate                         : 2 261 Kbps
Encoded date                             : UTC 2013-02-26 17:20:16
Tagged date                              : UTC 2013-02-26 17:20:16

Video
ID                                       : 1
Format                                   : AVC
Format/Info                              : Advanced Video Codec
Format profile                           : High@L4.1
Format settings, CABAC                   : Yes
Format settings, ReFrames                : 3 frames
Codec ID                                 : avc1
Codec ID/Info                            : Advanced Video Coding
Duration                                 : 1h 30mn
Bit rate mode                            : Variable
Bit rate                                 : 1 920 Kbps
Maximum bit rate                         : 40.0 Mbps
Width                                    : 720 pixels
Height                                   : 384 pixels
Display aspect ratio                     : 1.85:1
Frame rate mode                          : Constant
Frame rate                               : 23.976 fps
Color space                              : YUV
Chroma subsampling                       : 4:2:0
Bit depth                                : 8 bits
Scan type                                : Progressive
Bits/(Pixel*Frame)                       : 0.290
Stream size                              : 1.21 GiB (85%)
Writing library                          : x264 core 129 r2245 bc13772

Audio
ID                                       : 2
Format                                   : AAC
Format/Info                              : Advanced Audio Codec
Format profile                           : LC
Codec ID                                 : 40
Duration                                 : 1h 30mn
Bit rate mode                            : Variable
Bit rate                                 : 338 Kbps
Maximum bit rate                         : 400 Kbps
Channel(s)                               : 6 channels
Channel positions                        : Front: L C R, Side: L R, LFE
Sampling rate                            : 48.0 KHz
Compression mode                         : Lossy
Stream size                              : 218 MiB (15%)
Language                                 : English
Encoded date                             : UTC 2013-02-26 16:02:17
Tagged date                              : UTC 2013-02-26 17:20:54

[IMG]http://i.imgur.com/WHHcQCZ.png[/IMG]
[IMG]http://i.imgur.com/NVt4bCE.png[/IMG]
[IMG]http://i.imgur.com/EoScjcL.png[/IMG]
[IMG]http://i.imgur.com/tYmIhCi.png[/IMG]
[IMG]http://i.imgur.com/ozkFcqW.png[/IMG]

Greets: To Our Friends